{
    "asset" : {
        "generator" : "Khronos glTF Blender I/O v1.6.16",
        "version" : "2.0"
    },
    "scene" : 0,
    "scenes" : [
        {
            "name" : "Scene",
            "nodes" : [
                1
            ]
        }
    ],
    "nodes" : [
        {
            "mesh" : 0,
            "name" : "Extrude",
            "rotation" : [
                0.0011549638584256172,
                0,
                -0.0011549638584256172,
                1
            ],
            "translation" : [
                0,
                199.99998474121094,
                297.7358093261719
            ]
        },
        {
            "children" : [
                0
            ],
            "name" : "Trax",
            "rotation" : [
                0.7071068286895752,
                0,
                0,
                0.7071067094802856
            ],
            "scale" : [
                0.009999999776482582,
                0.009999999776482582,
                0.009999999776482582
            ],
            "translation" : [
                0.07357946038246155,
                3.5786523818969727,
                -1.9099485874176025
            ]
        }
    ],
    "materials" : [
        {
            "doubleSided" : true,
            "name" : "No SSS shiny Black plastic",
            "pbrMetallicRoughness" : {
                "baseColorFactor" : [
                    0.3222894072532654,
                    0.38225057721138,
                    1,
                    1
                ],
                "roughnessFactor" : 0.7242424488067627
            }
        }
    ],
    "meshes" : [
        {
            "name" : "Mesh",
            "primitives" : [
                {
                    "attributes" : {
                        "POSITION" : 0,
                        "NORMAL" : 1,
                        "TEXCOORD_0" : 2
                    },
                    "indices" : 3,
                    "material" : 0
                }
            ]
        }
    ],
    "accessors" : [
        {
            "bufferView" : 0,
            "componentType" : 5126,
            "count" : 19367,
            "max" : [
                558.0591430664062,
                24.642608642578125,
                399.1700744628906
            ],
            "min" : [
                -558.0535278320312,
                -25.489376068115234,
                -292.72998046875
            ],
            "type" : "VEC3"
        },
        {
            "bufferView" : 1,
            "componentType" : 5126,
            "count" : 19367,
            "type" : "VEC3"
        },
        {
            "bufferView" : 2,
            "componentType" : 5126,
            "count" : 19367,
            "type" : "VEC2"
        },
        {
            "bufferView" : 3,
            "componentType" : 5123,
            "count" : 110916,
            "type" : "SCALAR"
        }
    ],
    "bufferViews" : [
        {
            "buffer" : 0,
            "byteLength" : 232404,
            "byteOffset" : 0
        },
        {
            "buffer" : 0,
            "byteLength" : 232404,
            "byteOffset" : 232404
        },
        {
            "buffer" : 0,
            "byteLength" : 154936,
            "byteOffset" : 464808
        },
        {
            "buffer" : 0,
            "byteLength" : 221832,
            "byteOffset" : 619744
        }
    ],
    "buffers" : [
        {
            "byteLength" : 841576,
            "uri" : "data:application/octet-stream;base64,"
        }
    ]
}
